<svg xmlns="http://www.w3.org/2000/svg"><symbol class="svg-inline--fa fa-github fa-w-16" id="sprite-github" viewBox="0 0 496 512"><title>github</title><path fill="currentColor" d="M165.9 397.4c0 2-2.3 3.6-5.2 3.6-3.3.3-5.6-1.3-5.6-3.6 0-2 2.3-3.6 5.2-3.6 3-.3 5.6 1.3 5.6 3.6zm-31.1-4.5c-.7 2 1.3 4.3 4.3 4.9 2.6 1 5.6 0 6.2-2s-1.3-4.3-4.3-5.2c-2.6-.7-5.5.3-6.2 2.3zm44.2-1.7c-2.9.7-4.9 2.6-4.6 4.9.3 2 2.9 3.3 5.9 2.6 2.9-.7 4.9-2.6 4.6-4.6-.3-1.9-3-3.2-5.9-2.9zM244.8 8C106.1 8 0 113.3 0 252c0 110.9 69.8 205.8 169.5 239.2 12.8 2.3 17.3-5.6 17.3-12.1 0-6.2-.3-40.4-.3-61.4 0 0-70 15-84.7-29.8 0 0-11.4-29.1-27.8-36.6 0 0-22.9-15.7 1.6-15.4 0 0 24.9 2 38.6 25.8 21.9 38.6 58.6 27.5 72.9 20.9 2.3-16 8.8-27.1 16-33.7-55.9-6.2-112.3-14.3-112.3-110.5 0-27.5 7.6-41.3 23.6-58.9-2.6-6.5-11.1-33.3 2.6-67.9 20.9-6.5 69 27 69 27 20-5.6 41.5-8.5 62.8-8.5s42.8 2.9 62.8 8.5c0 0 48.1-33.6 69-27 13.7 34.7 5.2 61.4 2.6 67.9 16 17.7 25.8 31.5 25.8 58.9 0 96.5-58.9 104.2-114.8 110.5 9.2 7.9 17 22.9 17 46.4 0 33.7-.3 75.4-.3 83.6 0 6.5 4.6 14.4 17.3 12.1C428.2 457.8 496 362.9 496 252 496 113.3 383.5 8 244.8 8zM97.2 352.9c-1.3 1-1 3.3.7 5.2 1.6 1.6 3.9 2.3 5.2 1 1.3-1 1-3.3-.7-5.2-1.6-1.6-3.9-2.3-5.2-1zm-10.8-8.1c-.7 1.3.3 2.9 2.3 3.9 1.6 1 3.6.7 4.3-.7.7-1.3-.3-2.9-2.3-3.9-2-.6-3.6-.3-4.3.7zm32.4 35.6c-1.6 1.3-1 4.3 1.3 6.2 2.3 2.3 5.2 2.6 6.5 1 1.3-1.3.7-4.3-1.3-6.2-2.2-2.3-5.2-2.6-6.5-1zm-11.4-14.7c-1.6 1-1.6 3.6 0 5.9 1.6 2.3 4.3 3.3 5.6 2.3 1.6-1.3 1.6-3.9 0-6.2-1.4-2.3-4-3.3-5.6-2z"/></symbol><symbol class="svg-inline--fa fa-linkedin fa-w-14" id="sprite-linkedin" viewBox="0 0 448 512"><title>linkedin</title><path fill="currentColor" d="M416 32H31.9C14.3 32 0 46.5 0 64.3v383.4C0 465.5 14.3 480 31.9 480H416c17.6 0 32-14.5 32-32.3V64.3c0-17.8-14.4-32.3-32-32.3zM135.4 416H69V202.2h66.5V416zm-33.2-243c-21.3 0-38.5-17.3-38.5-38.5S80.9 96 102.2 96c21.2 0 38.5 17.3 38.5 38.5 0 21.3-17.2 38.5-38.5 38.5zm282.1 243h-66.4V312c0-24.8-.5-56.7-34.5-56.7-34.6 0-39.9 27-39.9 54.9V416h-66.4V202.2h63.7v29.2h.9c8.9-16.8 30.6-34.5 62.9-34.5 67.2 0 79.7 44.3 79.7 101.9V416z"/></symbol><symbol id="sprite-logo" viewBox="0 0 654 654"><title>logo</title><style>.st1{fill-rule:evenodd;clip-rule:evenodd;fill:#1e76bd}</style><path d="M0 0h654v654H0V0z" fill="none"/><path class="st1" d="M416 53l-96-37v448l96 37V53zm171 66l-96-37v448l96 37V119z"/><path class="st1" d="M557 107.2L341 24.1v69l216 83.2v-69.1zm0 134.2l-216-83.2v69l216 83.2v-69zM248.2 454.7l94.7 36.7-38.4 14.1-94.7-36.7 38.4-14.1zm-61 22.4l94.7 36.7-38.4 14.1-94.7-36.7 38.4-14.1zm-62 22.7l94.7 36.7-38.4 14.1-94.7-36.7 38.4-14.1zm176.2 21.5l94.7 36.7-38.4 14.1-94.7-36.7 38.4-14.1z"/><path class="st1" d="M313.3 480l29.6 11.5-99.3 36.4-29.6-11.5 99.3-36.4zm-126.1-2.9l29.6 11.5-99.3 36.4L88 513.4l99.2-36.3zM362.3 499l29.6 11.5-99.3 36.4-29.6-11.5 99.3-36.4zm65.1 25.3l29.6 11.5-99.3 36.4-29.6-11.5 99.3-36.4z"/><path class="st1" d="M365.4 547l29.6 11.5-99.3 36.4-29.6-11.5 99.3-36.4zm111.1-3.7l29.6 11.5-99.3 36.4-29.6-11.5 99.3-36.4zm4.2 47.6l29.6 11.5-99.3 36.3-29.6-11.5 99.3-36.3z"/><path class="st1" d="M476.5 543.3l94.7 36.7-38.4 14.1-94.7-36.7 38.4-14.1zm-60.9 22.3l94.7 36.7-38.4 14.1-94.7-36.7 38.4-14.1zm-62.1 22.8l94.7 36.7-38.4 14.1-94.7-36.7 38.4-14.1zM73 98.7l96-36.9v404l-96 36.9v-404z"/><path class="st1" d="M73 98.7l216-83.1v68.9L73 167.6V98.7zm0 134l216-83.1v68.9L73 301.7v-69z"/></symbol></svg>