<svg xmlns="http://www.w3.org/2000/svg" viewBox="0 0 654 654"><style>  .st1{fill-rule:evenodd;clip-rule:evenodd;fill:#1e76bd}</style><path d="M0 0h654v654H0V0z" fill="none"/><path class="st1" d="M416 53l-96-37v448l96 37V53zm171 66l-96-37v448l96 37V119z"/><path class="st1" d="M557 107.2L341 24.1v69l216 83.2v-69.1zm0 134.2l-216-83.2v69l216 83.2v-69zM248.2 454.7l94.7 36.7-38.4 14.1-94.7-36.7 38.4-14.1zm-61 22.4l94.7 36.7-38.4 14.1-94.7-36.7 38.4-14.1zm-62 22.7l94.7 36.7-38.4 14.1-94.7-36.7 38.4-14.1zm176.2 21.5l94.7 36.7-38.4 14.1-94.7-36.7 38.4-14.1z"/><path class="st1" d="M313.3 480l29.6 11.5-99.3 36.4-29.6-11.5 99.3-36.4zm-126.1-2.9l29.6 11.5-99.3 36.4L88 513.4l99.2-36.3zM362.3 499l29.6 11.5-99.3 36.4-29.6-11.5 99.3-36.4zm65.1 25.3l29.6 11.5-99.3 36.4-29.6-11.5 99.3-36.4z"/><path class="st1" d="M365.4 547l29.6 11.5-99.3 36.4-29.6-11.5 99.3-36.4zm111.1-3.7l29.6 11.5-99.3 36.4-29.6-11.5 99.3-36.4zm4.2 47.6l29.6 11.5-99.3 36.3-29.6-11.5 99.3-36.3z"/><path class="st1" d="M476.5 543.3l94.7 36.7-38.4 14.1-94.7-36.7 38.4-14.1zm-60.9 22.3l94.7 36.7-38.4 14.1-94.7-36.7 38.4-14.1zm-62.1 22.8l94.7 36.7-38.4 14.1-94.7-36.7 38.4-14.1zM73 98.7l96-36.9v404l-96 36.9v-404z"/><path class="st1" d="M73 98.7l216-83.1v68.9L73 167.6V98.7zm0 134l216-83.1v68.9L73 301.7v-69z"/></svg>