<?xml version="1.0" standalone="no"?>
<!DOCTYPE svg PUBLIC "-//W3C//DTD SVG 20010904//EN"
 "http://www.w3.org/TR/2001/REC-SVG-20010904/DTD/svg10.dtd">
<svg version="1.0" xmlns="http://www.w3.org/2000/svg"
 width="460.000000pt" height="460.000000pt" viewBox="0 0 460.000000 460.000000"
 preserveAspectRatio="xMidYMid meet">
<metadata>
Created by potrace 1.11, written by Peter Selinger 2001-2013
</metadata>
<g transform="translate(0.000000,460.000000) scale(0.100000,-0.100000)"
fill="#000000" stroke="none">
<path d="M0 2300 l0 -2300 2300 0 2300 0 0 2300 0 2300 -2300 0 -2300 0 0
-2300z m2030 1956 l0 -244 -104 -41 c-58 -23 -107 -41 -111 -41 -3 0 -25 -8
-48 -19 -23 -10 -98 -40 -167 -65 -69 -26 -134 -51 -145 -56 -23 -11 -194 -76
-242 -92 l-33 -11 0 -229 c0 -125 4 -228 8 -228 5 0 22 6 38 14 16 8 85 35
154 60 69 26 134 51 145 56 32 16 493 190 502 190 1 0 3 -109 3 -243 l0 -242
-77 -29 c-43 -16 -152 -57 -243 -92 -91 -36 -194 -76 -230 -89 -36 -14 -117
-45 -180 -69 l-115 -45 -3 -708 -2 -708 -28 -12 c-15 -7 -58 -24 -97 -38 -79
-30 -171 -65 -260 -100 -114 -45 -274 -105 -279 -105 -3 0 -6 641 -6 1424 l0
1423 48 18 c83 31 223 85 352 134 69 27 175 68 235 91 61 23 149 57 197 76 49
19 91 34 95 34 5 0 20 6 35 14 14 8 43 19 65 26 35 12 284 108 428 165 33 13
61 24 63 25 1 0 2 -110 2 -244z m335 195 c44 -16 116 -44 160 -61 44 -17 114
-44 155 -60 81 -31 208 -80 335 -130 44 -17 116 -45 160 -61 44 -16 89 -33
100 -39 27 -12 188 -74 247 -94 26 -9 56 -20 65 -25 10 -6 56 -24 103 -41 47
-17 112 -42 145 -55 33 -13 96 -37 140 -54 44 -17 89 -35 100 -40 11 -5 28
-12 38 -15 16 -5 17 -89 17 -1585 l0 -1579 -92 34 c-51 19 -102 38 -113 44
-17 8 -141 55 -240 92 -16 6 -43 17 -60 24 -16 6 -63 24 -102 40 l-73 27 0
862 0 861 -37 16 c-55 23 -201 79 -333 128 -63 24 -119 47 -125 52 -35 31 -35
31 -35 -853 0 -816 -1 -861 -17 -854 -10 4 -76 29 -148 57 -164 63 -227 87
-345 133 -52 20 -110 42 -127 47 l-33 11 0 1580 c0 1500 1 1579 18 1574 9 -3
53 -19 97 -36z m-459 -3110 c82 -32 230 -89 328 -127 154 -59 176 -69 155 -77
-13 -5 -33 -13 -44 -18 -11 -5 -54 -20 -95 -35 -41 -14 -133 -47 -205 -74
-248 -93 -324 -120 -335 -120 -10 0 -107 37 -334 127 -61 24 -116 43 -124 43
-18 0 -164 -52 -159 -56 2 -2 44 -19 93 -37 182 -70 339 -131 344 -134 9 -7
-24 -22 -142 -63 l-118 -41 -92 35 c-51 19 -140 54 -198 76 -112 44 -181 70
-298 115 -95 36 -106 29 173 125 50 17 99 35 110 40 20 9 109 42 272 101 60
21 87 27 100 20 18 -10 327 -133 395 -157 34 -12 45 -10 113 13 42 14 73 29
68 32 -4 4 -66 29 -138 56 -71 27 -134 51 -140 55 -5 4 -45 19 -88 35 -43 15
-76 29 -74 31 2 2 35 15 73 28 38 14 92 34 119 44 28 11 60 21 71 21 12 1 89
-25 170 -58z m690 -266 c22 -9 48 -20 59 -25 11 -5 37 -14 57 -21 21 -7 35
-16 30 -20 -4 -5 -47 -22 -97 -39 -49 -17 -99 -35 -110 -40 -11 -6 -47 -20
-80 -31 -33 -12 -75 -27 -93 -34 l-33 -12 122 -47 122 -48 101 37 c56 20 153
55 218 78 l116 41 84 -33 c45 -18 91 -36 101 -40 21 -8 -7 -20 -218 -96 -71
-26 -143 -52 -160 -60 -16 -7 -88 -34 -160 -59 -195 -70 -431 -156 -512 -186
-44 -17 -76 -24 -85 -19 -7 5 -53 23 -101 40 -48 18 -84 35 -80 39 4 4 35 17
68 28 33 12 110 39 170 62 61 23 125 46 143 51 17 5 32 12 32 14 0 6 -51 27
-220 91 -178 68 -221 86 -215 92 3 3 26 13 52 22 124 45 533 195 573 210 57
23 69 23 116 5z m809 -313 c28 -11 88 -35 135 -54 47 -19 114 -45 150 -58 36
-13 70 -26 75 -30 6 -4 39 -17 75 -29 36 -13 79 -29 95 -36 17 -7 41 -17 55
-22 24 -10 23 -11 -24 -31 -27 -12 -51 -22 -55 -22 -3 0 -41 -13 -85 -29 l-78
-30 -157 61 c-86 33 -189 73 -229 88 l-73 28 -75 -25 c-42 -14 -72 -29 -67
-33 9 -8 204 -85 243 -96 14 -3 30 -10 35 -14 6 -4 33 -15 60 -24 28 -9 61
-23 75 -31 l25 -13 -25 -10 c-14 -5 -63 -23 -110 -40 -47 -18 -194 -72 -328
-122 -189 -70 -248 -88 -262 -80 -10 6 -56 24 -102 40 -46 17 -92 35 -103 40
-11 5 -74 30 -140 55 -66 26 -147 57 -180 70 -33 13 -73 29 -90 35 -30 12 -29
12 70 51 177 70 152 70 326 2 85 -33 187 -73 227 -88 78 -30 66 -31 186 11
l50 18 -45 19 c-24 10 -66 27 -94 37 -102 38 -241 90 -260 99 -11 5 -29 12
-40 16 -19 7 -19 8 5 17 14 6 39 17 57 24 17 8 34 14 37 14 6 0 265 94 401
145 124 47 170 64 180 64 6 1 33 -7 60 -17z"/>
<path d="M2922 3518 l3 -230 60 -23 c33 -12 96 -36 140 -53 160 -61 320 -122
323 -122 1 0 2 101 2 224 0 167 -3 226 -12 233 -7 6 -33 17 -58 26 -66 23
-232 86 -255 96 -11 5 -42 17 -70 27 -27 10 -54 21 -60 24 -5 4 -25 12 -43 18
l-32 11 2 -231z"/>
</g>
</svg>
